  0
SECTION
  2
BLOCKS
  0
ENDSEC
  0
SECTION
  2
ENTITIES
  0
LINE
  8
0
 10
0
 11
20
 20
0
 21
20
  0
LINE
  8
0
 10
20
 11
40
 20
20
 21
0
  0
LINE
  8
0
 10
40
 11
60
 20
0
 21
20
  0
LINE
  8
0
 10
60
 11
80
 20
20
 21
0
  0
LINE
  8
0
 10
80
 11
100
 20
0
 21
20
  0
LINE
  8
0
 10
100
 11
120
 20
20
 21
0
  0
LINE
  8
0
 10
120
 11
120
 20
0
 21
60
  0
LINE
  8
0
 10
120
 11
80
 20
60
 21
60
  0
LINE
  8
0
 10
80
 11
80
 20
60
 21
40
  0
LINE
  8
0
 10
80
 11
60
 20
40
 21
40
  0
LINE
  8
0
 10
60
 11
60
 20
40
 21
60
  0
LINE
  8
0
 10
60
 11
40
 20
60
 21
60
  0
LINE
  8
0
 10
40
 11
40
 20
60
 21
40
  0
LINE
  8
0
 10
40
 11
0
 20
40
 21
40
  0
LINE
  8
0
 10
0
 11
0
 20
40
 21
0
  0
LINE
  8
0
 10
160
 11
176.65434696821
 20
0
 21
16.644656315521
  0
LINE
  8
0
 10
176.65434696821
 11
176.85339804475
 20
16.644656315521
 21
16.814661995419
  0
LINE
  8
0
 10
176.85339804475
 11
177.06107373854
 20
16.814661995419
 21
16.974017160009
  0
LINE
  8
0
 10
177.06107373854
 11
177.27680482492
 20
16.974017160009
 21
17.122285027862
  0
LINE
  8
0
 10
177.27680482492
 11
177.5
 20
17.122285027862
 21
17.259059207057
  0
LINE
  8
0
 10
177.5
 11
177.7300475013
 20
17.259059207057
 21
17.383964809076
  0
LINE
  8
0
 10
177.7300475013
 11
177.96631678462
 20
17.383964809076
 21
17.496659476348
  0
LINE
  8
0
 10
177.96631678462
 11
178.20816025227
 20
17.496659476348
 21
17.596834320621
  0
LINE
  8
0
 10
178.20816025227
 11
178.45491502813
 20
17.596834320621
 21
17.68421476961
  0
LINE
  8
0
 10
178.45491502813
 11
178.70590477449
 20
17.68421476961
 21
17.75856131958
  0
LINE
  8
0
 10
178.70590477449
 11
178.96044154591
 20
17.75856131958
 21
17.819670191804
  0
LINE
  8
0
 10
178.96044154591
 11
179.2178276748
 20
17.819670191804
 21
17.86737389111
  0
LINE
  8
0
 10
179.2178276748
 11
179.47735768366
 20
17.86737389111
 21
17.901541664976
  0
LINE
  8
0
 10
179.47735768366
 11
179.73832021879
 20
17.901541664976
 21
17.922079861907
  0
LINE
  8
0
 10
179.73832021879
 11
180.0
 20
17.922079861907
 21
17.928932188135
  0
LINE
  8
0
 10
180.0
 11
180.26167978121
 20
17.928932188135
 21
17.922079861907
  0
LINE
  8
0
 10
180.26167978121
 11
180.52264231634
 20
17.922079861907
 21
17.901541664976
  0
LINE
  8
0
 10
180.52264231634
 11
180.7821723252
 20
17.901541664976
 21
17.86737389111
  0
LINE
  8
0
 10
180.7821723252
 11
181.03955845409
 20
17.86737389111
 21
17.819670191804
  0
LINE
  8
0
 10
181.03955845409
 11
181.29409522551
 20
17.819670191804
 21
17.75856131958
  0
LINE
  8
0
 10
181.29409522551
 11
181.54508497187
 20
17.75856131958
 21
17.68421476961
  0
LINE
  8
0
 10
181.54508497187
 11
181.79183974773
 20
17.68421476961
 21
17.596834320621
  0
LINE
  8
0
 10
181.79183974773
 11
182.03368321538
 20
17.596834320621
 21
17.496659476348
  0
LINE
  8
0
 10
182.03368321538
 11
182.2699524987
 20
17.496659476348
 21
17.383964809076
  0
LINE
  8
0
 10
182.2699524987
 11
182.5
 20
17.383964809076
 21
17.259059207057
  0
LINE
  8
0
 10
182.5
 11
182.72319517508
 20
17.259059207057
 21
17.122285027862
  0
LINE
  8
0
 10
182.72319517508
 11
182.93892626146
 20
17.122285027862
 21
16.974017160009
  0
LINE
  8
0
 10
182.93892626146
 11
183.14660195525
 20
16.974017160009
 21
16.814661995419
  0
LINE
  8
0
 10
183.14660195525
 11
183.34565303179
 20
16.814661995419
 21
16.644656315521
  0
LINE
  8
0
 10
183.34565303179
 11
183.53553390593
 20
16.644656315521
 21
16.464466094067
  0
LINE
  8
0
 10
183.53553390593
 11
197.99260818092
 20
16.464466094067
 21
2.0132062106871
  0
LINE
  8
0
 10
197.99260818092
 11
198.11203882685
 20
2.0132062106871
 21
1.9112028027484
  0
LINE
  8
0
 10
198.11203882685
 11
198.23664424312
 20
1.9112028027484
 21
1.8155897039944
  0
LINE
  8
0
 10
198.23664424312
 11
198.36608289495
 20
1.8155897039944
 21
1.726628983283
  0
LINE
  8
0
 10
198.36608289495
 11
198.5
 20
1.726628983283
 21
1.644564475766
  0
LINE
  8
0
 10
198.5
 11
198.63802850078
 20
1.644564475766
 21
1.5696211145542
  0
LINE
  8
0
 10
198.63802850078
 11
198.77979007077
 20
1.5696211145542
 21
1.5020043141915
  0
LINE
  8
0
 10
198.77979007077
 11
198.92489615136
 20
1.5020043141915
 21
1.4418994076277
  0
LINE
  8
0
 10
198.92489615136
 11
199.07294901688
 20
1.4418994076277
 21
1.3894711382338
  0
LINE
  8
0
 10
199.07294901688
 11
199.22354286469
 20
1.3894711382338
 21
1.3448632082521
  0
LINE
  8
0
 10
199.22354286469
 11
199.37626492755
 20
1.3448632082521
 21
1.3081978849179
  0
LINE
  8
0
 10
199.37626492755
 11
199.53069660488
 20
1.3081978849179
 21
1.2795756653339
  0
LINE
  8
0
 10
199.53069660488
 11
199.6864146102
 20
1.2795756653339
 21
1.2590750010145
  0
LINE
  8
0
 10
199.6864146102
 11
199.84299213127
 20
1.2590750010145
 21
1.2467520828556
  0
LINE
  8
0
 10
199.84299213127
 11
200.0
 20
1.2467520828556
 21
1.2426406871193
  0
LINE
  8
0
 10
200.0
 11
200.15700786873
 20
1.2426406871193
 21
1.2467520828556
  0
LINE
  8
0
 10
200.15700786873
 11
200.3135853898
 20
1.2467520828556
 21
1.2590750010145
  0
LINE
  8
0
 10
200.3135853898
 11
200.46930339512
 20
1.2590750010145
 21
1.2795756653339
  0
LINE
  8
0
 10
200.46930339512
 11
200.62373507245
 20
1.2795756653339
 21
1.3081978849179
  0
LINE
  8
0
 10
200.62373507245
 11
200.77645713531
 20
1.3081978849179
 21
1.3448632082521
  0
LINE
  8
0
 10
200.77645713531
 11
200.92705098312
 20
1.3448632082521
 21
1.3894711382338
  0
LINE
  8
0
 10
200.92705098312
 11
201.07510384864
 20
1.3894711382338
 21
1.4418994076277
  0
LINE
  8
0
 10
201.07510384864
 11
201.22020992923
 20
1.4418994076277
 21
1.5020043141915
  0
LINE
  8
0
 10
201.22020992923
 11
201.36197149922
 20
1.5020043141915
 21
1.5696211145542
  0
LINE
  8
0
 10
201.36197149922
 11
201.5
 20
1.5696211145542
 21
1.644564475766
  0
LINE
  8
0
 10
201.5
 11
201.63391710505
 20
1.644564475766
 21
1.726628983283
  0
LINE
  8
0
 10
201.63391710505
 11
201.76335575688
 20
1.726628983283
 21
1.8155897039944
  0
LINE
  8
0
 10
201.76335575688
 11
201.88796117315
 20
1.8155897039944
 21
1.9112028027484
  0
LINE
  8
0
 10
201.88796117315
 11
202.00739181908
 20
1.9112028027484
 21
2.0132062106871
  0
LINE
  8
0
 10
202.00739181908
 11
202.12132034356
 20
2.0132062106871
 21
2.1213203435596
  0
LINE
  8
0
 10
202.12132034356
 11
220
 20
2.1213203435596
 21
20
  0
LINE
  8
0
 10
220
 11
240
 20
20
 21
0
  0
LINE
  8
0
 10
240
 11
260
 20
0
 21
20
  0
LINE
  8
0
 10
260
 11
280
 20
20
 21
0
  0
LINE
  8
0
 10
280
 11
280.45084971875
 20
0
 21
0.61073738537634
  0
LINE
  8
0
 10
280.45084971875
 11
281.93352839727
 20
0.61073738537634
 21
2.7680482492486
  0
LINE
  8
0
 10
281.93352839727
 11
283.30127018922
 20
2.7680482492486
 21
5.0
  0
LINE
  8
0
 10
283.30127018922
 11
284.55032620942
 20
5.0
 21
7.3004750130227
  0
LINE
  8
0
 10
284.55032620942
 11
285.67727288213
 20
7.3004750130227
 21
9.66316784621
  0
LINE
  8
0
 10
285.67727288213
 11
286.67902132486
 20
9.66316784621
 21
12.081602522735
  0
LINE
  8
0
 10
286.67902132486
 11
287.55282581476
 20
12.081602522735
 21
14.549150281253
  0
LINE
  8
0
 10
287.55282581476
 11
288.29629131445
 20
14.549150281253
 21
17.059047744874
  0
LINE
  8
0
 10
288.29629131445
 11
288.90738003669
 20
17.059047744874
 21
19.604415459112
  0
LINE
  8
0
 10
288.90738003669
 11
289.38441702976
 20
19.604415459112
 21
22.178276747988
  0
LINE
  8
0
 10
289.38441702976
 11
289.72609476841
 20
22.178276747988
 21
24.773576836617
  0
LINE
  8
0
 10
289.72609476841
 11
289.93147673773
 20
24.773576836617
 21
27.383202187853
  0
LINE
  8
0
 10
289.93147673773
 11
290.0
 20
27.383202187853
 21
30.0
  0
LINE
  8
0
 10
290.0
 11
289.93147673773
 20
30.0
 21
32.616797812147
  0
LINE
  8
0
 10
289.93147673773
 11
289.72609476841
 20
32.616797812147
 21
35.226423163383
  0
LINE
  8
0
 10
289.72609476841
 11
289.38441702976
 20
35.226423163383
 21
37.821723252012
  0
LINE
  8
0
 10
289.38441702976
 11
288.90738003669
 20
37.821723252012
 21
40.395584540888
  0
LINE
  8
0
 10
288.90738003669
 11
288.29629131445
 20
40.395584540888
 21
42.940952255126
  0
LINE
  8
0
 10
288.29629131445
 11
287.55282581476
 20
42.940952255126
 21
45.450849718747
  0
LINE
  8
0
 10
287.55282581476
 11
286.67902132486
 20
45.450849718747
 21
47.918397477265
  0
LINE
  8
0
 10
286.67902132486
 11
285.67727288213
 20
47.918397477265
 21
50.33683215379
  0
LINE
  8
0
 10
285.67727288213
 11
284.55032620942
 20
50.33683215379
 21
52.699524986977
  0
LINE
  8
0
 10
284.55032620942
 11
283.30127018922
 20
52.699524986977
 21
55.0
  0
LINE
  8
0
 10
283.30127018922
 11
281.93352839727
 20
55.0
 21
57.231951750751
  0
LINE
  8
0
 10
281.93352839727
 11
280.45084971875
 20
57.231951750751
 21
59.389262614624
  0
LINE
  8
0
 10
280.45084971875
 11
280
 20
59.389262614624
 21
60
  0
LINE
  8
0
 10
280
 11
240
 20
60
 21
60
  0
LINE
  8
0
 10
240
 11
240.01792837968
 20
60
 21
59.981141347559
  0
LINE
  8
0
 10
240.01792837968
 11
240.5258865012
 20
59.981141347559
 21
59.416996700788
  0
LINE
  8
0
 10
240.5258865012
 11
241.00362343422
 20
59.416996700788
 21
58.827040720626
  0
LINE
  8
0
 10
241.00362343422
 11
241.44982973502
 20
58.827040720626
 21
58.21289043541
  0
LINE
  8
0
 10
241.44982973502
 11
241.86328238313
 20
58.21289043541
 21
57.576229188381
  0
LINE
  8
0
 10
241.86328238313
 11
242.2428481336
 20
57.576229188381
 21
56.918802023764
  0
LINE
  8
0
 10
242.2428481336
 11
242.58748662307
 20
56.918802023764
 21
56.24241090372
  0
LINE
  8
0
 10
242.58748662307
 11
242.89625322141
 20
56.24241090372
 21
55.548909769294
  0
LINE
  8
0
 10
242.89625322141
 11
243.16830162084
 20
55.548909769294
 21
54.84019945889
  0
LINE
  8
0
 10
243.16830162084
 11
243.40288615559
 20
54.84019945889
 21
54.118222498207
  0
LINE
  8
0
 10
243.40288615559
 11
243.59936384577
 20
54.118222498207
 21
53.384957775911
  0
LINE
  8
0
 10
243.59936384577
 11
243.75719615968
 20
53.384957775911
 21
52.642415119636
  0
LINE
  8
0
 10
243.75719615968
 11
243.87595048992
 20
52.642415119636
 21
51.892629787191
  0
LINE
  8
0
 10
243.87595048992
 11
243.95530133913
 20
51.892629787191
 21
51.137656888054
  0
LINE
  8
0
 10
243.95530133913
 11
243.99503121215
 20
51.137656888054
 21
50.379565750464
  0
LINE
  8
0
 10
243.99503121215
 11
243.99503121215
 20
50.379565750464
 21
49.620434249536
  0
LINE
  8
0
 10
243.99503121215
 11
243.95530133913
 20
49.620434249536
 21
48.862343111946
  0
LINE
  8
0
 10
243.95530133913
 11
243.87595048992
 20
48.862343111946
 21
48.107370212809
  0
LINE
  8
0
 10
243.87595048992
 11
243.75719615968
 20
48.107370212809
 21
47.357584880364
  0
LINE
  8
0
 10
243.75719615968
 11
243.59936384577
 20
47.357584880364
 21
46.615042224089
  0
LINE
  8
0
 10
243.59936384577
 11
243.40288615559
 20
46.615042224089
 21
45.881777501793
  0
LINE
  8
0
 10
243.40288615559
 11
243.16830162084
 20
45.881777501793
 21
45.15980054111
  0
LINE
  8
0
 10
243.16830162084
 11
242.89625322141
 20
45.15980054111
 21
44.451090230706
  0
LINE
  8
0
 10
242.89625322141
 11
242.58748662307
 20
44.451090230706
 21
43.75758909628
  0
LINE
  8
0
 10
242.58748662307
 11
242.2428481336
 20
43.75758909628
 21
43.081197976236
  0
LINE
  8
0
 10
242.2428481336
 11
241.86328238313
 20
43.081197976236
 21
42.423770811619
  0
LINE
  8
0
 10
241.86328238313
 11
241.44982973502
 20
42.423770811619
 21
41.78710956459
  0
LINE
  8
0
 10
241.44982973502
 11
241.00362343422
 20
41.78710956459
 21
41.172959279374
  0
LINE
  8
0
 10
241.00362343422
 11
240.5258865012
 20
41.172959279374
 21
40.583003299212
  0
LINE
  8
0
 10
240.5258865012
 11
240.01792837968
 20
40.583003299212
 21
40.018858652441
  0
LINE
  8
0
 10
240.01792837968
 11
240
 20
40.018858652441
 21
40
  0
LINE
  8
0
 10
240
 11
220
 20
40
 21
40
  0
LINE
  8
0
 10
220
 11
220.0
 20
40
 21
56.0
  0
LINE
  8
0
 10
220.0
 11
220.0
 20
56.0
 21
56.0
  0
LINE
  8
0
 10
220.0
 11
219.79065617503
 20
56.0
 21
56.005481860982
  0
LINE
  8
0
 10
219.79065617503
 11
219.58188614693
 20
56.005481860982
 21
56.021912418527
  0
LINE
  8
0
 10
219.58188614693
 11
219.37426213984
 20
56.021912418527
 21
56.049246637619
  0
LINE
  8
0
 10
219.37426213984
 11
219.16835323673
 20
56.049246637619
 21
56.087409597065
  0
LINE
  8
0
 10
219.16835323673
 11
218.96472381959
 20
56.087409597065
 21
56.136296694844
  0
LINE
  8
0
 10
218.96472381959
 11
218.7639320225
 20
56.136296694844
 21
56.195773934819
  0
LINE
  8
0
 10
218.7639320225
 11
218.56652820182
 20
56.195773934819
 21
56.265678294011
  0
LINE
  8
0
 10
218.56652820182
 11
218.3730534277
 20
56.265678294011
 21
56.34581816943
  0
LINE
  8
0
 10
218.3730534277
 11
218.18403800104
 20
56.34581816943
 21
56.435973903247
  0
LINE
  8
0
 10
218.18403800104
 11
218.0
 20
56.435973903247
 21
56.535898384862
  0
LINE
  8
0
 10
218.0
 11
217.82144385994
 20
56.535898384862
 21
56.645317728218
  0
LINE
  8
0
 10
217.82144385994
 11
217.64885899083
 20
56.645317728218
 21
56.7639320225
  0
LINE
  8
0
 10
217.64885899083
 11
217.4827184358
 20
56.7639320225
 21
56.891416154172
  0
LINE
  8
0
 10
217.4827184358
 11
217.32347757456
 20
56.891416154172
 21
57.02742069809
  0
LINE
  8
0
 10
217.32347757456
 11
217.17157287525
 20
57.02742069809
 21
57.171572875254
  0
LINE
  8
0
 10
217.17157287525
 11
217.02742069809
 20
57.171572875254
 21
57.323477574565
  0
LINE
  8
0
 10
217.02742069809
 11
216.89141615417
 20
57.323477574565
 21
57.482718435801
  0
LINE
  8
0
 10
216.89141615417
 11
216.7639320225
 20
57.482718435801
 21
57.64885899083
  0
LINE
  8
0
 10
216.7639320225
 11
216.64531772822
 20
57.64885899083
 21
57.82144385994
  0
LINE
  8
0
 10
216.64531772822
 11
216.53589838486
 20
57.82144385994
 21
58.0
  0
LINE
  8
0
 10
216.53589838486
 11
216.43597390325
 20
58.0
 21
58.184038001042
  0
LINE
  8
0
 10
216.43597390325
 11
216.34581816943
 20
58.184038001042
 21
58.373053427697
  0
LINE
  8
0
 10
216.34581816943
 11
216.26567829401
 20
58.373053427697
 21
58.566528201819
  0
LINE
  8
0
 10
216.26567829401
 11
216.19577393482
 20
58.566528201819
 21
58.7639320225
  0
LINE
  8
0
 10
216.19577393482
 11
216.13629669484
 20
58.7639320225
 21
58.96472381959
  0
LINE
  8
0
 10
216.13629669484
 11
216.08740959706
 20
58.96472381959
 21
59.168353236729
  0
LINE
  8
0
 10
216.08740959706
 11
216.04924663762
 20
59.168353236729
 21
59.374262139839
  0
LINE
  8
0
 10
216.04924663762
 11
216.02191241853
 20
59.374262139839
 21
59.581886146929
  0
LINE
  8
0
 10
216.02191241853
 11
216.00548186098
 20
59.581886146929
 21
59.790656175028
  0
LINE
  8
0
 10
216.00548186098
 11
216.0
 20
59.790656175028
 21
60.0
  0
LINE
  8
0
 10
216.0
 11
216.0
 20
60.0
 21
60.0
  0
LINE
  8
0
 10
216.0
 11
204.0
 20
60.0
 21
60.0
  0
LINE
  8
0
 10
204.0
 11
204.0
 20
60.0
 21
60.0
  0
LINE
  8
0
 10
204.0
 11
203.99451813902
 20
60.0
 21
60.209343824972
  0
LINE
  8
0
 10
203.99451813902
 11
203.97808758147
 20
60.209343824972
 21
60.418113853071
  0
LINE
  8
0
 10
203.97808758147
 11
203.95075336238
 20
60.418113853071
 21
60.625737860161
  0
LINE
  8
0
 10
203.95075336238
 11
203.91259040294
 20
60.625737860161
 21
60.831646763271
  0
LINE
  8
0
 10
203.91259040294
 11
203.86370330516
 20
60.831646763271
 21
61.03527618041
  0
LINE
  8
0
 10
203.86370330516
 11
203.80422606518
 20
61.03527618041
 21
61.2360679775
  0
LINE
  8
0
 10
203.80422606518
 11
203.73432170599
 20
61.2360679775
 21
61.433471798181
  0
LINE
  8
0
 10
203.73432170599
 11
203.65418183057
 20
61.433471798181
 21
61.626946572303
  0
LINE
  8
0
 10
203.65418183057
 11
203.56402609675
 20
61.626946572303
 21
61.815961998958
  0
LINE
  8
0
 10
203.56402609675
 11
203.46410161514
 20
61.815961998958
 21
62.0
  0
LINE
  8
0
 10
203.46410161514
 11
203.35468227178
 20
62.0
 21
62.17855614006
  0
LINE
  8
0
 10
203.35468227178
 11
203.2360679775
 20
62.17855614006
 21
62.35114100917
  0
LINE
  8
0
 10
203.2360679775
 11
203.10858384583
 20
62.35114100917
 21
62.517281564199
  0
LINE
  8
0
 10
203.10858384583
 11
202.97257930191
 20
62.517281564199
 21
62.676522425435
  0
LINE
  8
0
 10
202.97257930191
 11
202.82842712475
 20
62.676522425435
 21
62.828427124746
  0
LINE
  8
0
 10
202.82842712475
 11
202.67652242544
 20
62.828427124746
 21
62.97257930191
  0
LINE
  8
0
 10
202.67652242544
 11
202.5172815642
 20
62.97257930191
 21
63.108583845828
  0
LINE
  8
0
 10
202.5172815642
 11
202.35114100917
 20
63.108583845828
 21
63.2360679775
  0
LINE
  8
0
 10
202.35114100917
 11
202.17855614006
 20
63.2360679775
 21
63.354682271782
  0
LINE
  8
0
 10
202.17855614006
 11
202.0
 20
63.354682271782
 21
63.464101615138
  0
LINE
  8
0
 10
202.0
 11
201.81596199896
 20
63.464101615138
 21
63.564026096753
  0
LINE
  8
0
 10
201.81596199896
 11
201.6269465723
 20
63.564026096753
 21
63.65418183057
  0
LINE
  8
0
 10
201.6269465723
 11
201.43347179818
 20
63.65418183057
 21
63.734321705989
  0
LINE
  8
0
 10
201.43347179818
 11
201.2360679775
 20
63.734321705989
 21
63.804226065181
  0
LINE
  8
0
 10
201.2360679775
 11
201.03527618041
 20
63.804226065181
 21
63.863703305156
  0
LINE
  8
0
 10
201.03527618041
 11
200.83164676327
 20
63.863703305156
 21
63.912590402935
  0
LINE
  8
0
 10
200.83164676327
 11
200.62573786016
 20
63.912590402935
 21
63.950753362381
  0
LINE
  8
0
 10
200.62573786016
 11
200.41811385307
 20
63.950753362381
 21
63.978087581473
  0
LINE
  8
0
 10
200.41811385307
 11
200.20934382497
 20
63.978087581473
 21
63.994518139018
  0
LINE
  8
0
 10
200.20934382497
 11
200.0
 20
63.994518139018
 21
64.0
  0
LINE
  8
0
 10
200.0
 11
199.79065617503
 20
64.0
 21
63.994518139018
  0
LINE
  8
0
 10
199.79065617503
 11
199.58188614693
 20
63.994518139018
 21
63.978087581473
  0
LINE
  8
0
 10
199.58188614693
 11
199.37426213984
 20
63.978087581473
 21
63.950753362381
  0
LINE
  8
0
 10
199.37426213984
 11
199.16835323673
 20
63.950753362381
 21
63.912590402935
  0
LINE
  8
0
 10
199.16835323673
 11
198.96472381959
 20
63.912590402935
 21
63.863703305156
  0
LINE
  8
0
 10
198.96472381959
 11
198.7639320225
 20
63.863703305156
 21
63.804226065181
  0
LINE
  8
0
 10
198.7639320225
 11
198.56652820182
 20
63.804226065181
 21
63.734321705989
  0
LINE
  8
0
 10
198.56652820182
 11
198.3730534277
 20
63.734321705989
 21
63.65418183057
  0
LINE
  8
0
 10
198.3730534277
 11
198.18403800104
 20
63.65418183057
 21
63.564026096753
  0
LINE
  8
0
 10
198.18403800104
 11
198.0
 20
63.564026096753
 21
63.464101615138
  0
LINE
  8
0
 10
198.0
 11
197.82144385994
 20
63.464101615138
 21
63.354682271782
  0
LINE
  8
0
 10
197.82144385994
 11
197.64885899083
 20
63.354682271782
 21
63.2360679775
  0
LINE
  8
0
 10
197.64885899083
 11
197.4827184358
 20
63.2360679775
 21
63.108583845828
  0
LINE
  8
0
 10
197.4827184358
 11
197.32347757456
 20
63.108583845828
 21
62.97257930191
  0
LINE
  8
0
 10
197.32347757456
 11
197.17157287525
 20
62.97257930191
 21
62.828427124746
  0
LINE
  8
0
 10
197.17157287525
 11
197.02742069809
 20
62.828427124746
 21
62.676522425435
  0
LINE
  8
0
 10
197.02742069809
 11
196.89141615417
 20
62.676522425435
 21
62.517281564199
  0
LINE
  8
0
 10
196.89141615417
 11
196.7639320225
 20
62.517281564199
 21
62.35114100917
  0
LINE
  8
0
 10
196.7639320225
 11
196.64531772822
 20
62.35114100917
 21
62.17855614006
  0
LINE
  8
0
 10
196.64531772822
 11
196.53589838486
 20
62.17855614006
 21
62.0
  0
LINE
  8
0
 10
196.53589838486
 11
196.43597390325
 20
62.0
 21
61.815961998958
  0
LINE
  8
0
 10
196.43597390325
 11
196.34581816943
 20
61.815961998958
 21
61.626946572303
  0
LINE
  8
0
 10
196.34581816943
 11
196.26567829401
 20
61.626946572303
 21
61.433471798181
  0
LINE
  8
0
 10
196.26567829401
 11
196.19577393482
 20
61.433471798181
 21
61.2360679775
  0
LINE
  8
0
 10
196.19577393482
 11
196.13629669484
 20
61.2360679775
 21
61.03527618041
  0
LINE
  8
0
 10
196.13629669484
 11
196.08740959706
 20
61.03527618041
 21
60.831646763271
  0
LINE
  8
0
 10
196.08740959706
 11
196.04924663762
 20
60.831646763271
 21
60.625737860161
  0
LINE
  8
0
 10
196.04924663762
 11
196.02191241853
 20
60.625737860161
 21
60.418113853071
  0
LINE
  8
0
 10
196.02191241853
 11
196.00548186098
 20
60.418113853071
 21
60.209343824972
  0
LINE
  8
0
 10
196.00548186098
 11
196.0
 20
60.209343824972
 21
60.0
  0
LINE
  8
0
 10
196.0
 11
196.00548186098
 20
60.0
 21
59.790656175028
  0
LINE
  8
0
 10
196.00548186098
 11
196.02191241853
 20
59.790656175028
 21
59.581886146929
  0
LINE
  8
0
 10
196.02191241853
 11
196.04924663762
 20
59.581886146929
 21
59.374262139839
  0
LINE
  8
0
 10
196.04924663762
 11
196.08740959706
 20
59.374262139839
 21
59.168353236729
  0
LINE
  8
0
 10
196.08740959706
 11
196.13629669484
 20
59.168353236729
 21
58.96472381959
  0
LINE
  8
0
 10
196.13629669484
 11
196.19577393482
 20
58.96472381959
 21
58.7639320225
  0
LINE
  8
0
 10
196.19577393482
 11
196.26567829401
 20
58.7639320225
 21
58.566528201819
  0
LINE
  8
0
 10
196.26567829401
 11
196.34581816943
 20
58.566528201819
 21
58.373053427697
  0
LINE
  8
0
 10
196.34581816943
 11
196.43597390325
 20
58.373053427697
 21
58.184038001042
  0
LINE
  8
0
 10
196.43597390325
 11
196.53589838486
 20
58.184038001042
 21
58.0
  0
LINE
  8
0
 10
196.53589838486
 11
196.64531772822
 20
58.0
 21
57.82144385994
  0
LINE
  8
0
 10
196.64531772822
 11
196.7639320225
 20
57.82144385994
 21
57.64885899083
  0
LINE
  8
0
 10
196.7639320225
 11
196.89141615417
 20
57.64885899083
 21
57.482718435801
  0
LINE
  8
0
 10
196.89141615417
 11
197.02742069809
 20
57.482718435801
 21
57.323477574565
  0
LINE
  8
0
 10
197.02742069809
 11
197.17157287525
 20
57.323477574565
 21
57.171572875254
  0
LINE
  8
0
 10
197.17157287525
 11
197.32347757456
 20
57.171572875254
 21
57.02742069809
  0
LINE
  8
0
 10
197.32347757456
 11
197.4827184358
 20
57.02742069809
 21
56.891416154172
  0
LINE
  8
0
 10
197.4827184358
 11
197.64885899083
 20
56.891416154172
 21
56.7639320225
  0
LINE
  8
0
 10
197.64885899083
 11
197.82144385994
 20
56.7639320225
 21
56.645317728218
  0
LINE
  8
0
 10
197.82144385994
 11
198.0
 20
56.645317728218
 21
56.535898384862
  0
LINE
  8
0
 10
198.0
 11
198.18403800104
 20
56.535898384862
 21
56.435973903247
  0
LINE
  8
0
 10
198.18403800104
 11
198.3730534277
 20
56.435973903247
 21
56.34581816943
  0
LINE
  8
0
 10
198.3730534277
 11
198.56652820182
 20
56.34581816943
 21
56.265678294011
  0
LINE
  8
0
 10
198.56652820182
 11
198.7639320225
 20
56.265678294011
 21
56.195773934819
  0
LINE
  8
0
 10
198.7639320225
 11
198.96472381959
 20
56.195773934819
 21
56.136296694844
  0
LINE
  8
0
 10
198.96472381959
 11
199.16835323673
 20
56.136296694844
 21
56.087409597065
  0
LINE
  8
0
 10
199.16835323673
 11
199.37426213984
 20
56.087409597065
 21
56.049246637619
  0
LINE
  8
0
 10
199.37426213984
 11
199.58188614693
 20
56.049246637619
 21
56.021912418527
  0
LINE
  8
0
 10
199.58188614693
 11
199.79065617503
 20
56.021912418527
 21
56.005481860982
  0
LINE
  8
0
 10
199.79065617503
 11
200.0
 20
56.005481860982
 21
56.0
  0
LINE
  8
0
 10
200.0
 11
200.0
 20
56.0
 21
56.0
  0
LINE
  8
0
 10
200.0
 11
199.99314767377
 20
56.0
 21
44.738320218785
  0
LINE
  8
0
 10
199.99314767377
 11
199.97260947684
 20
44.738320218785
 21
44.477357683662
  0
LINE
  8
0
 10
199.97260947684
 11
199.93844170298
 20
44.477357683662
 21
44.217827674799
  0
LINE
  8
0
 10
199.93844170298
 11
199.89073800367
 20
44.217827674799
 21
43.960441545911
  0
LINE
  8
0
 10
199.89073800367
 11
199.82962913145
 20
43.960441545911
 21
43.705904774487
  0
LINE
  8
0
 10
199.82962913145
 11
199.75528258148
 20
43.705904774487
 21
43.454915028125
  0
LINE
  8
0
 10
199.75528258148
 11
199.66790213249
 20
43.454915028125
 21
43.208160252274
  0
LINE
  8
0
 10
199.66790213249
 11
199.56772728821
 20
43.208160252274
 21
42.966316784621
  0
LINE
  8
0
 10
199.56772728821
 11
199.45503262094
 20
42.966316784621
 21
42.730047501302
  0
LINE
  8
0
 10
199.45503262094
 11
199.33012701892
 20
42.730047501302
 21
42.5
  0
LINE
  8
0
 10
199.33012701892
 11
199.19335283973
 20
42.5
 21
42.276804824925
  0
LINE
  8
0
 10
199.19335283973
 11
199.04508497187
 20
42.276804824925
 21
42.061073738538
  0
LINE
  8
0
 10
199.04508497187
 11
198.88572980728
 20
42.061073738538
 21
41.853398044751
  0
LINE
  8
0
 10
198.88572980728
 11
198.71572412739
 20
41.853398044751
 21
41.654346968206
  0
LINE
  8
0
 10
198.71572412739
 11
198.53553390593
 20
41.654346968206
 21
41.464466094067
  0
LINE
  8
0
 10
198.53553390593
 11
198.34565303179
 20
41.464466094067
 21
41.284275872613
  0
LINE
  8
0
 10
198.34565303179
 11
198.14660195525
 20
41.284275872613
 21
41.114270192715
  0
LINE
  8
0
 10
198.14660195525
 11
197.93892626146
 20
41.114270192715
 21
40.954915028125
  0
LINE
  8
0
 10
197.93892626146
 11
197.72319517508
 20
40.954915028125
 21
40.806647160273
  0
LINE
  8
0
 10
197.72319517508
 11
197.5
 20
40.806647160273
 21
40.669872981078
  0
LINE
  8
0
 10
197.5
 11
197.2699524987
 20
40.669872981078
 21
40.544967379058
  0
LINE
  8
0
 10
197.2699524987
 11
197.03368321538
 20
40.544967379058
 21
40.432272711787
  0
LINE
  8
0
 10
197.03368321538
 11
196.79183974773
 20
40.432272711787
 21
40.332097867514
  0
LINE
  8
0
 10
196.79183974773
 11
196.54508497187
 20
40.332097867514
 21
40.244717418524
  0
LINE
  8
0
 10
196.54508497187
 11
196.29409522551
 20
40.244717418524
 21
40.170370868555
  0
LINE
  8
0
 10
196.29409522551
 11
196.03955845409
 20
40.170370868555
 21
40.109261996331
  0
LINE
  8
0
 10
196.03955845409
 11
195.7821723252
 20
40.109261996331
 21
40.061558297024
  0
LINE
  8
0
 10
195.7821723252
 11
195.52264231634
 20
40.061558297024
 21
40.027390523159
  0
LINE
  8
0
 10
195.52264231634
 11
195.26167978121
 20
40.027390523159
 21
40.006852326227
  0
LINE
  8
0
 10
195.26167978121
 11
195.0
 20
40.006852326227
 21
40.0
  0
LINE
  8
0
 10
195.0
 11
160
 20
40.0
 21
40
  0
LINE
  8
0
 10
160
 11
160
 20
40
 21
0
  0
ENDSEC
  0
SECTION
  2
OBJECTS
  0
DICTIONARY
  0
ENDSEC
  0
EOF
